<mxfile host="app.diagrams.net" agent="Mozilla/5.0 (Windows NT 10.0; Win64; x64) AppleWebKit/537.36 (KHTML, like Gecko) Chrome/134.0.0.0 YaBrowser/25.4.0.0 Safari/537.36" version="27.0.5">
  <diagram name="Страница — 1" id="eAvAqWo9TRAJcgs_wW60">
    <mxGraphModel dx="1633" dy="972" grid="1" gridSize="10" guides="1" tooltips="1" connect="1" arrows="1" fold="1" page="0" pageScale="1" pageWidth="1654" pageHeight="1169" math="0" shadow="0">
      <root>
        <mxCell id="0" />
        <mxCell id="1" parent="0" />
        <mxCell id="YxK3cjh6VIdlDEp903zd-3" value="" style="endArrow=none;html=1;rounded=0;exitX=0.5;exitY=0;exitDx=0;exitDy=0;strokeWidth=2;" parent="1" source="YxK3cjh6VIdlDEp903zd-12" edge="1">
          <mxGeometry width="50" height="50" relative="1" as="geometry">
            <mxPoint x="-333" y="220" as="sourcePoint" />
            <mxPoint x="-200" y="40" as="targetPoint" />
          </mxGeometry>
        </mxCell>
        <mxCell id="YxK3cjh6VIdlDEp903zd-4" value="" style="endArrow=none;html=1;rounded=0;exitX=0.5;exitY=1;exitDx=0;exitDy=0;strokeWidth=2;" parent="1" source="YxK3cjh6VIdlDEp903zd-9" edge="1">
          <mxGeometry width="50" height="50" relative="1" as="geometry">
            <mxPoint x="-277" y="-142" as="sourcePoint" />
            <mxPoint x="-200" y="40" as="targetPoint" />
          </mxGeometry>
        </mxCell>
        <mxCell id="YxK3cjh6VIdlDEp903zd-5" value="" style="endArrow=none;html=1;rounded=0;exitX=0.5;exitY=0;exitDx=0;exitDy=0;strokeWidth=2;" parent="1" edge="1">
          <mxGeometry width="50" height="50" relative="1" as="geometry">
            <mxPoint x="-100" y="240" as="sourcePoint" />
            <mxPoint y="40" as="targetPoint" />
          </mxGeometry>
        </mxCell>
        <mxCell id="YxK3cjh6VIdlDEp903zd-6" value="" style="endArrow=none;html=1;rounded=0;exitX=0.5;exitY=1;exitDx=0;exitDy=0;strokeWidth=2;" parent="1" source="YxK3cjh6VIdlDEp903zd-10" edge="1">
          <mxGeometry width="50" height="50" relative="1" as="geometry">
            <mxPoint x="-97" y="-142" as="sourcePoint" />
            <mxPoint y="40" as="targetPoint" />
          </mxGeometry>
        </mxCell>
        <mxCell id="YxK3cjh6VIdlDEp903zd-9" value="Психологические факторы" style="rounded=1;whiteSpace=wrap;html=1;fillColor=#FFFFFF;fontColor=#333333;strokeColor=#666666;" parent="1" vertex="1">
          <mxGeometry x="-350" y="-180" width="120" height="60" as="geometry" />
        </mxCell>
        <mxCell id="YxK3cjh6VIdlDEp903zd-10" value="Личные факторы" style="rounded=1;whiteSpace=wrap;html=1;fillColor=#FFFFFF;fontColor=#333333;strokeColor=#666666;" parent="1" vertex="1">
          <mxGeometry x="-140" y="-180" width="120" height="60" as="geometry" />
        </mxCell>
        <mxCell id="YxK3cjh6VIdlDEp903zd-12" value="Внешние (социальные) факторы" style="rounded=1;whiteSpace=wrap;html=1;fillColor=#FFFFFF;fontColor=#333333;strokeColor=#666666;" parent="1" vertex="1">
          <mxGeometry x="-340" y="210" width="120" height="60" as="geometry" />
        </mxCell>
        <mxCell id="6Y0pdt_cPUB3Q58gTQsV-6" value="&lt;font style=&quot;font-size: 10px;&quot;&gt;Тревожность&lt;/font&gt;" style="rounded=0;whiteSpace=wrap;html=1;" parent="1" vertex="1">
          <mxGeometry x="-310" y="-70" width="120" height="26" as="geometry" />
        </mxCell>
        <mxCell id="6Y0pdt_cPUB3Q58gTQsV-7" value="&lt;font style=&quot;font-size: 10px;&quot;&gt;Завышенные ожидания от себя&lt;/font&gt;" style="rounded=0;whiteSpace=wrap;html=1;" parent="1" vertex="1">
          <mxGeometry x="-290" y="-14" width="120" height="26" as="geometry" />
        </mxCell>
        <mxCell id="6Y0pdt_cPUB3Q58gTQsV-9" value="&lt;font style=&quot;font-size: 10px;&quot;&gt;Плохое планирование&lt;/font&gt;" style="rounded=0;whiteSpace=wrap;html=1;" parent="1" vertex="1">
          <mxGeometry x="-120" y="-96" width="120" height="26" as="geometry" />
        </mxCell>
        <mxCell id="6Y0pdt_cPUB3Q58gTQsV-10" value="&lt;font style=&quot;font-size: 10px;&quot;&gt;Отсутствие самодисциплины&lt;/font&gt;" style="rounded=0;whiteSpace=wrap;html=1;" parent="1" vertex="1">
          <mxGeometry x="-100" y="-40" width="120" height="26" as="geometry" />
        </mxCell>
        <mxCell id="6Y0pdt_cPUB3Q58gTQsV-31" value="&lt;font style=&quot;font-size: 10px;&quot;&gt;Сложный учебный план&lt;/font&gt;" style="rounded=0;whiteSpace=wrap;html=1;" parent="1" vertex="1">
          <mxGeometry x="-290" y="80" width="120" height="26" as="geometry" />
        </mxCell>
        <mxCell id="6Y0pdt_cPUB3Q58gTQsV-43" value="&lt;h5 style=&quot;text-wrap-mode: wrap; line-height: 1.5; margin: 18.288px 0px 13.716px;&quot;&gt;&lt;font style=&quot;font-size: 14px;&quot;&gt;Перенасыщенный график&lt;/font&gt;&lt;/h5&gt;" style="html=1;shadow=0;dashed=0;align=left;verticalAlign=middle;shape=mxgraph.arrows2.arrow;dy=0;dx=44.3;notch=0;fillColor=#FFFFFF;strokeColor=#000000;" parent="1" vertex="1">
          <mxGeometry x="40" y="-14" width="150" height="120" as="geometry" />
        </mxCell>
        <mxCell id="6Y0pdt_cPUB3Q58gTQsV-45" value="" style="endArrow=none;html=1;rounded=0;fontSize=12;startSize=8;endSize=8;curved=1;entryX=0.005;entryY=0.457;entryDx=0;entryDy=0;entryPerimeter=0;strokeWidth=2;" parent="1" target="6Y0pdt_cPUB3Q58gTQsV-43" edge="1">
          <mxGeometry width="50" height="50" relative="1" as="geometry">
            <mxPoint x="-360" y="41" as="sourcePoint" />
            <mxPoint x="-200" y="-20" as="targetPoint" />
          </mxGeometry>
        </mxCell>
        <mxCell id="dfPlKcH5BgJ4WBQGIArf-1" value="Физические факторы" style="rounded=1;whiteSpace=wrap;html=1;fillColor=#FFFFFF;fontColor=#333333;strokeColor=#666666;" vertex="1" parent="1">
          <mxGeometry x="-160" y="210" width="120" height="60" as="geometry" />
        </mxCell>
        <mxCell id="dfPlKcH5BgJ4WBQGIArf-2" value="&lt;font style=&quot;font-size: 10px;&quot;&gt;Усталость, нехватка сна&lt;/font&gt;" style="rounded=0;whiteSpace=wrap;html=1;" vertex="1" parent="1">
          <mxGeometry x="-100" y="106" width="120" height="26" as="geometry" />
        </mxCell>
        <mxCell id="dfPlKcH5BgJ4WBQGIArf-4" value="&lt;font style=&quot;font-size: 10px;&quot;&gt;Плохое питание&lt;/font&gt;" style="rounded=0;whiteSpace=wrap;html=1;" vertex="1" parent="1">
          <mxGeometry x="-120" y="156" width="120" height="26" as="geometry" />
        </mxCell>
        <mxCell id="dfPlKcH5BgJ4WBQGIArf-8" value="&lt;font style=&quot;font-size: 10px;&quot;&gt;Постоянные отвлечения&lt;/font&gt;" style="rounded=0;whiteSpace=wrap;html=1;" vertex="1" parent="1">
          <mxGeometry x="-320" y="130" width="120" height="26" as="geometry" />
        </mxCell>
      </root>
    </mxGraphModel>
  </diagram>
</mxfile>
